<?xml version="1.0" encoding="utf-8"?>
<!-- Generator: Adobe Illustrator 22.0.1, SVG Export Plug-In . SVG Version: 6.00 Build 0)  -->
<svg version="1.1" xmlns="http://www.w3.org/2000/svg" xmlns:xlink="http://www.w3.org/1999/xlink" x="0px" y="0px"
	 viewBox="0 0 500 500" style="enable-background:new 0 0 500 500;" xml:space="preserve">
<style type="text/css">
	.st0{fill:#FFFFFF;stroke:#000000;stroke-miterlimit:10;}
	.st1{fill:#FFFFFF;}
	.st2{fill:#1D1D1D;}
	.st3{fill:none;stroke:#000000;stroke-width:26.3796;stroke-miterlimit:10;}
	.st4{fill:none;stroke:#000000;stroke-width:18.5381;stroke-miterlimit:10;}
	.st5{fill:none;stroke:#000000;stroke-width:12.873;stroke-miterlimit:10;}
	.st6{fill:none;stroke:#000000;stroke-width:9.9271;stroke-miterlimit:10;}
</style>
<g id="Layer_3">
</g>
<g id="Layer_2">
</g>
<g id="Layer_1">
	<g>
		<g>
			<path d="M304.2,160.5l-7.8,19.4l-59.3,6.2l-42.6,199.7c-1.9,9-5.6,15.6-11.2,19.9c-5.6,4.3-11.7,6.4-18.3,6.4
				c-7.6,0-13.7-1.5-18.3-4.6c-4.6-3.1-8.6-7.2-11.9-12.4l-15.6-25.2l21.7-13.9l14.9,23.8c1.7,2.8,3.8,4.3,6.4,4.3
				c1.9,0,3.3-0.5,4.1-1.6c0.8-1.1,1.5-2.3,2-3.7l41.2-192.6H155v-25.6h60l9.2-44.8c1.9-8,5.9-14.7,12.1-19.9
				c6.2-5.2,13.3-7.8,21.3-7.8h63.6v25.6h-59c-6.6,0-10.7,3.6-12.1,10.7l-7.5,36.2H304.2z"/>
			<path d="M309.1,157.8c10.2,0,19.7,1.8,28.4,5.3c8.8,3.6,16.3,8.5,22.7,14.9c6.4,6.4,11.4,14,15.1,22.9c3.7,8.9,5.5,18.7,5.5,29.3
				c0,14.7-2.4,28.8-7.3,42.5c-4.9,13.6-12,25.7-21.3,36.2c-9.4,10.5-20.8,19-34.5,25.4c-13.6,6.4-29.1,9.6-46.4,9.6
				c-9.9,0-19.3-1.7-28.1-5.2c-8.8-3.4-16.4-8.2-22.9-14.4c-6.5-6.2-11.7-13.7-15.5-22.6c-3.8-8.9-5.7-18.8-5.7-29.7
				c0-17.1,2.9-32.6,8.7-46.7c5.8-14.1,13.7-26.1,23.8-36.1c10.1-9.9,21.7-17.7,35-23.3C280.1,160.6,294.2,157.8,309.1,157.8z
				 M277.5,317.7c10.9,0,21-2.4,30.2-7.3c9.2-4.9,17.2-11.2,23.8-19.2c6.6-7.9,11.8-17,15.5-27.2c3.7-10.2,5.5-20.7,5.5-31.6
				c0-14-4.3-25.5-13-34.6c-8.6-9.1-20.8-13.7-36.4-13.7c-10.2,0-19.8,2.3-28.8,6.8c-9,4.5-16.9,10.7-23.6,18.5
				c-6.8,7.8-12.1,16.9-16.2,27.2c-4,10.3-6,21.3-6,32.9c0,14.2,4.3,25.8,12.8,34.8C249.8,313.2,261.8,317.7,277.5,317.7z"/>
		</g>
		<g>
			<path d="M256.2,238.7c0.1-0.6,0-1.1-0.2-1.6c-0.3-0.4-0.7-0.7-1.4-0.7c-0.5,0-0.9,0.1-1.3,0.4l-10.5,7.2l-3.6-5.3l10.6-7.2
				c1.9-1.3,3.9-1.9,6-1.9c2,0,3.8,0.6,5.3,1.8c1.5,1.2,2.2,3.1,2.2,5.6c0,1-0.1,1.9-0.4,2.9l-6.7,27.8c-0.2,0.7-0.1,1.3,0.2,1.7
				c0.3,0.4,0.8,0.6,1.3,0.6c0.4,0,0.9-0.1,1.3-0.4l10.3-7l3.6,5.3l-10.3,7c-1.9,1.3-3.9,1.9-6,1.9c-2,0-3.8-0.6-5.3-1.8
				c-1.5-1.2-2.2-3.1-2.2-5.6c0-1,0.1-1.9,0.4-2.9L256.2,238.7z M257.7,217.5c0-1.7,0.6-3.2,1.8-4.5c1.2-1.2,2.7-1.8,4.5-1.8
				c1.7,0,3.2,0.6,4.5,1.8c1.2,1.2,1.8,2.7,1.8,4.5c0,1.7-0.6,3.2-1.8,4.5c-1.2,1.2-2.7,1.8-4.5,1.8c-1.7,0-3.2-0.6-4.5-1.8
				C258.3,220.8,257.7,219.3,257.7,217.5z"/>
			<path d="M322.6,248.7c0.2-0.8,0.3-1.5,0.4-2.1c0.1-0.6,0.1-1.2,0.1-1.8c0-2.9-0.9-5-2.6-6.4c-1.7-1.4-4.1-2.1-7.2-2.1
				c-4.1,0-7.4,1.5-10,4.4c-2.6,2.9-4.3,6.6-5.3,11.1l-5,23.8h-7l9.5-44.6h7l-1.3,6.5h1.1c1.5-2.7,3.5-4.7,5.9-5.9
				c2.4-1.2,5-1.8,7.7-1.8c1.9,0,3.7,0.3,5.5,0.9c1.7,0.6,3.3,1.5,4.5,2.7c1.3,1.2,2.3,2.7,3.1,4.4c0.7,1.7,1.1,3.7,1.1,6
				c0,1.5-0.2,3.1-0.5,4.8l-4.3,20c-0.1,0.5-0.1,0.8,0.2,1.1c0.2,0.2,0.5,0.4,0.9,0.4c0.4,0,0.7-0.1,1-0.4l3.8-2.8l3.8,5.3l-3.5,2.6
				c-1.8,1.4-3.8,2.1-6,2.1c-0.9,0-1.8-0.1-2.6-0.3c-0.8-0.2-1.6-0.6-2.2-1.1c-0.7-0.5-1.2-1.2-1.6-2c-0.4-0.8-0.6-1.9-0.6-3.1
				c0-0.8,0.1-1.7,0.4-2.9L322.6,248.7z"/>
		</g>
	</g>
</g>
</svg>
