<?xml version="1.0" encoding="utf-8"?>
<!-- Generator: Adobe Illustrator 23.0.2, SVG Export Plug-In . SVG Version: 6.00 Build 0)  -->
<svg version="1.1" id="Layer_1" xmlns="http://www.w3.org/2000/svg" xmlns:xlink="http://www.w3.org/1999/xlink" x="0px" y="0px"
	 viewBox="0 0 500 500" style="enable-background:new 0 0 500 500;" xml:space="preserve">
<style type="text/css">
	.st0{display:none;}
	.st1{display:inline;}
	.st2{fill:#FFFFFF;}
</style>
<g class="st0">
	<g class="st1">
		<g>
			<path d="M338.8,222.9c0,0.1,0,0.2,0,0.4c0.1,0,0.2,0,0.3-0.1c0-0.1,0-0.2,0-0.3C338.9,222.9,338.9,222.9,338.8,222.9z"/>
			<path d="M340,228.8c0,0.1,0,0.1-0.1,0.1l0,0c0,0,0.1,0,0.1,0.1C340,228.9,340,228.9,340,228.8z"/>
			<path d="M207.3,214.1C207.3,214.1,207.4,214.1,207.3,214.1c0.1,0,0.1-0.1,0.1-0.1C207.4,214,207.4,214,207.3,214.1L207.3,214.1z"
				/>
			<path d="M339.9,213.9C339.9,213.9,339.8,213.9,339.9,213.9c-0.1,0.1-0.1,0.1-0.1,0.2h0.1C339.9,214,339.9,214,339.9,213.9z"/>
			<path d="M339.6,244.3c0,0.1,0,0.2,0,0.3c0.3,0.1,0.6,0.1,0.9,0.2c-0.2-0.2-0.4-0.3-0.6-0.5C339.8,244.2,339.7,244.3,339.6,244.3z
				"/>
			<path d="M347.7,393c-0.2,2.7-0.4,5.1-0.4,7.5c0,7.5,0,15.1,0,22.6h17.9c0-9.9,0-19.9,0-30.1C358.8,393,353.5,393,347.7,393z"/>
			<path d="M321.7,393.1c-0.2,2.2-0.6,4.5-0.6,6.9c-0.1,7.7-0.2,15.4-0.2,23h17.6c0-9.9,0-19.9,0-29.9
				C332.9,393.1,327.6,393.1,321.7,393.1z"/>
			<path d="M338.6,223C338.6,223,338.6,223.1,338.6,223c0,0.1,0.1,0.1,0.1,0.1C338.7,223.1,338.7,223,338.6,223
				C338.7,223,338.6,223,338.6,223z"/>
			<path d="M339.7,228.5C339.7,228.5,339.7,228.6,339.7,228.5C339.7,228.6,339.7,228.6,339.7,228.5
				C339.7,228.6,339.7,228.5,339.7,228.5z"/>
			<path d="M364.6,244.5l0.3,0.3c-2.4,0-4.9,0-7.8,0c0-5.6,0-10.8,0-16.2c1.5-3.2,6.8,0.6,7.6-5.6c-2.4-0.8-4.8-1.7-7.6-2.7
				c0-2.2,0-4.6,0-7.5c2.3-0.5,4.6-1,7.3-1.6c0-17.6,0-34.9,0-52.4c-3-0.5-5.6-1-8.8-1.6c0-22,0-43.8,0-65.9
				c2.9-0.4,5.5-0.8,8.9-1.4c0-4.5,0-9,0-13.3H347c-0.1,4.6-0.3,9-0.5,13.1c-2.1,0.3-4.3,0.6-7.3,1.1c0-4.7,0-9.4,0-14.1h-19
				c0,4.4,0,8.8,0,13.3c-2.8,0-5.3,0-8.4,0c0-4.4,0-8.9,0-13.3H293c0,4.6,0,9.2,0,13.8c-2.9-0.2-4.9-0.3-7.4-0.5c0-4.5,0-8.9,0-13.3
				h-18.4c0,4.5,0,8.9,0,13.4c-3.2,0-5.5,0-8.8,0c0-4.5,0-9,0-13.4H240c0,4.3,0,8.6,0,13c-2.1,0.3-4.3,0.7-7.5,1.2
				c0-4.8,0-9.5,0-14.2h-18.9c0,4.4,0,8.9,0,13.4c-2.6,0-4.6,0-7.2,0c0-4.5,0-9,0-13.4h-19c0,4.4,0,8.8,0,13.3c-2.8,0-5.3,0-8.3,0
				c0-4.5,0-8.9,0-13.3h-18.9c0,4.6,0,9.2,0,13.9c-2.8-0.3-5.1-0.5-8-0.8c0-4.4,0-8.8,0-13.1h-18c0,4.5,0,8.7,0,13
				c-3.2,0.7-6,1.3-8.8,2c0,3.7,0,7.4,0,11.1c4.5,1.6,7.7,5.8,7.7,10.8s-3.2,9.2-7.7,10.8c0,10.9,0,21.8,0,32.8
				c3.2,0.5,5.8,1,9.2,1.6c0,17.5,0,34.8,0,52.6c6.4,0,11.8,0,18.2,0c0-18,0-35.3,0-52.8c2.9,0,5,0,7.9,0c0,17.7,0,35,0,52.8
				c6.4,0,11.9,0,18.2,0c0-18,0-35.3,0-53.4c3.4,0.3,6,0.5,8.7,0.7c0,18,0,35,0,52.3c-2.5,0.7-4.8,1.3-7.5,2c0,2.4,0,4.8,0,7.3
				c2.7,0.9,5.1,1.7,7.7,2.5c-0.6,6.1-5.8,2.7-7.7,5.7c0,5.1,0,10.3,0,15.2c4.9,1.2,9.3,2.3,13.9,3.5c0,7.4,0,14.4,0,21.3
				c-2.3,1.1-4.2,2-5.9,2.8c-0.2,4.3-0.4,7.9-0.7,12c-3,0-5.6,0-8.5,0c-0.4-4.6-0.7-8.8-1-12.6c-6.1,0-11.4,0-16.9,0
				c-0.4,4.7-0.7,8.6-0.8,10.9c-2.7,2.4-5.4,3.6-5.9,5.5c-1.4,5.5,4.2,3.1,6.3,6c0,1.6,0.1,3.8,0,5.9c-0.7,14.1,0.7,28.2-1.8,42.5
				c-1.9,11.1-0.4,22.9-0.4,34.5c0,5.7,0,11.5,0,17.3c-7.5,0.9-8.5,0.4-8.2-7.9c0.7-17.2-1.1-34.2,1.7-51.5
				c2.1-12.9,0.3-26.7,0.2-40.1c0-0.6-0.4-1.1-0.6-1.9c-1.7-0.5-3.5-1-4.9-1.4c-3.3-7.7,3.7-5.6,5-7.4c0-5,0-8.9,0-12.4
				c-6,0-11.3,0-16.9,0c-0.2,4.4-0.4,8.1-0.5,12.1c-2.1,0.7-4.1,1.4-5.6,1.9c-2.7,7.3,2.9,6,5.3,7.3c1.7,20.4,0.6,42.9-2.9,60.2
				c-2.4-0.2-4.9-0.3-7.7-0.5c-0.3-5.1-0.5-9.4-0.8-14.5c-3.7,0-6.9-0.1-10.1,0c-2.1,0.1-4.2,0.4-6.2,0.6
				c-1.7,9.5-1.5,47.3,0.3,53.9c5.4,0,10.8,0,16.2,0c0.3-3.8,0.5-7.2,0.7-10.8c3.2,0,5.9,0,8.2,0c3.3,14.1,3.4,27.9,3,41.9h19.2
				c2.3,0,4.3-0.3,6.8-0.7c0,0.3,0,0.6,0,0.9H179c-0.1-5.7-0.1-11.4-0.3-17.1c-0.4-19.1-3.5-38.2-1.6-57.2
				c1.9-18.7,1.3-37.5,2.1-56.5c3.2,0,5.8,0,9,0c0,14.1,0,27.7,0,41.3c-6.8,17.2-1.7,35.3-3.1,52.9c-0.2,2.1,1.4,4.3,1.9,6.5
				c0.6,2.3,1.2,4.7,1.2,7c0,7.7,0.1,15.4,0.1,23.1H206c0.1-6.6,0.2-13.2,0.3-19.8c0-4.1,1.3-8.7-2.6-11.9c-0.8-0.6-0.6-2.9-0.6-4.4
				c0-15.2,0-30.5,0.1-45.7c0-0.9,0.4-1.7,0.7-3.1c2.3,0,4.6,0,8,0c0,5.1,0,10,0,14.9c0,9.3-0.1,18.7,0,28c0.1,4.5-1,9.2,2.2,13.2
				c0.7,0.9,0.4,3,0.4,4.5c0,8.1,0,16.2,0.1,24.3h17.5c0.1-7.1,0.3-14.1,0.4-21.2c0-3.6,0.6-7.2-2-10.5c-1.1-1.5-0.7-4.7-0.7-7.2
				c-0.1-12.4-0.2-24.9,0.1-37.3c0.1-3.5,1.5-7,2-10.5c0.4-2.7,0.6-5.5,0.6-8.3c0.1-10.2,0-20.4,0-31.9c3.4,0.3,5.5,0.6,8.2,0.8
				c0,12.5,2,25.2-0.5,36.5c-3.8,17.9-0.9,35.7-2.2,53.4c2.9,11.9,3.3,24,3.1,36.1h17.1c0.1-7,0.3-14,0.3-21c0-3.5,0.8-7.2-1.9-10.5
				c-1.2-1.4-0.7-4.7-0.8-7.2c-0.1-12.8-0.2-25.5,0.1-38.3c0.1-3.2,1.3-6.4,1.9-9.6c0.2-1.2,0.6-2.4,0.6-3.6c0-13.3,0-26.7,0-40.3
				c-3.2-1.4-8.6-0.5-5.8-7.7c1.5-0.5,3.5-1.1,5.6-1.8c0.2-4.1,0.3-7.7,0.5-11.9c2.2-0.7,4.1-1.3,6.8-2.2c0-7,0-14.1,0-21.7
				c3,0,5.2,0,7.9,0c0,7.3,0,14.4,0,21.7c-1.8,0.8-3.6,1.5-5.7,2.4c-0.2,3.6-0.4,7.2-0.6,11.4c-1.6,2.5-8.9,0.3-5.4,8.1
				c1.4,0.4,3.2,0.9,4.8,1.4c0.3,0.8,0.6,1.3,0.6,1.9c0.1,13.1,1.8,26.5-0.2,39.1c-3,18.3-3,36.8-1.2,54.5
				c1.2,11.8,1.4,23.5,1.4,35.2h18.1c-0.1-5.8-0.2-11.5-0.4-17.3c-0.6-18.4-2.8-37-1.5-55.3c1.2-16,1.8-32,1.8-48c0-3.1,0-6.2,0-10
				c-2.4-0.6-3.9-0.9-5.6-1.3c-2.9-6.4,1.3-7,5.3-7.3c0.2-4.2,0.3-7.9,0.5-12.4c2.3-0.4,4.6-0.7,7.5-1.2c0,4.7,0,8.6,0,13.1
				c-1.1,2.3-6.2-0.7-6,5c0.2,5,4.5,2.3,6.5,5.4c0,12.5,1.6,26.2-0.4,39.1c-2.5,15.8-2.6,31.6-1.4,47.1c1.1,14.4,1.5,28.9,1.7,43.3
				h17.9c-0.4-24-2.4-48.1-1.6-72.1c0.5-16.3,1.8-32.6,1.8-49c0-3.1,0-6.2,0-8.4c-2.1-3.1-6.4-0.3-6.5-5.4c-0.1-5.2,3.7-3.3,6.1-4.9
				c0.2-3.4,0.4-7,0.7-11.4c1.6-0.8,3.5-1.7,5.9-3c0.2-4.2,0.4-8.8,0.6-14.1c2.8-0.2,5.3-0.4,8.5-0.6c0,5.2,0,9.7,0,14.8
				c-1.6,0.7-3.6,1.6-5.7,2.5c0,3.8,0,7.5,0,11.9c5.6,0,11.1,0,17.2,0c0.3-4,0.6-7.9,0.9-12c2-0.9,4-1.8,5.9-2.7c0-7.2,0-14,0-20
				c-1.8-1.5-3.3-2.7-4.6-3.9c-0.1,0-0.2,0-0.3-0.1c-0.1-0.1-0.1-0.1-0.2-0.2c-0.2,0-0.4-0.1-0.6-0.1c0-0.1,0-0.1,0-0.2
				c0,0-0.1,0-0.1,0c0,0,0-0.1,0-0.1c-2.5,0.2-5,0.5-8.2,0.8c-0.2-3.3-0.4-5.9-0.5-8.6c-0.1-2.5,0-4.9,0-7.4
				c3.3-2.5,6.2-2.3,9.2-0.1c0-0.1,0-0.1,0-0.1c0,0,0-0.1,0-0.1c-0.3-1.8-0.6-3.6-1-5.4c0,0-0.1,0-0.1,0c0,0,0-0.1,0-0.1
				c-0.1,0-0.1,0-0.2,0.1c0-0.1,0-0.2,0-0.4c-2.3-0.6-4.5-1.2-7.5-2.1c-0.1-2.3-0.2-4.8-0.4-8.8c3.5,0.8,6.2,1.4,8.9,2v-0.1h0.1
				c-0.3-3.6-0.9-7.2-0.9-10.8c-0.1-14.5,0-29.1,0-44.2c2.9,0,5.2,0,7.8,0c0,17.5,0,34.5,0,52c-2.1,0.9-4.5,2-6.9,3
				c0,0.1,0,0.1,0,0.2h-0.1c-0.3,2.9-0.7,5.9-1,8.8c0.1,0,0.1,0,0.2,0.1c0,0.1,0,0.1,0,0.2c0,0,0.1,0,0.1,0c0,0,0,0.1,0,0.1
				c2.5-0.5,4.9-0.9,7.5-1.4c1.1,7.7-5,3.8-6.5,6.8c0,0,0,0.1,0,0.1c0,0,0,0-0.1,0c0,0,0,0.1,0,0.1c0,0.1,0,0.2,0,0.2
				s-0.1,0-0.1-0.1c-0.1,5.1-0.2,10.1-0.4,15.2c0,0,0.1,0,0.1,0c0,0,0,0.1,0,0.1c0.1,0,0.1,0,0.2,0c0.1,0.1,0.3,0.2,0.4,0.3
				c0.1,0,0.2,0,0.3,0.1c0.1,0.1,0.1,0.1,0.2,0.2c4.1,0.8,8.2,1.7,12.6,2.5c0,7.3,0,14.4,0,21.7c-1.8,0.7-3.5,1.4-5.7,2.3
				c0,3.8,0,7.7,0,12.2c5.6,0,11.1,0,17.1,0c0.2-3.9,0.4-7.6,0.7-11.8c1.7-0.8,3.5-1.7,5.8-2.9c0-6.8,0-13.8,0-20.8
				C368.6,246.7,366.6,245.6,364.6,244.5z M150.9,157.5c-2.1,0.2-4.4,0.3-7.2,0.5c0-22.3,0-43.8,0-66.6c2.6,0,4.7,0,7.2,0
				C150.9,113.4,150.9,135,150.9,157.5z M169.4,158.3c-0.3-22.6-0.1-44.5-0.1-66.8c3.3,0,5.7,0,9.2,0c0.2,21.8,0,43.4,0.1,65.9
				C175.7,157.7,173.2,157.9,169.4,158.3z M196.8,91.7c2.5-0.2,4.7-0.3,7.5-0.5c0,22.4,0,43.9,0,66.2c-2.5,0-4.9,0-7.5,0
				C196.8,135.2,196.8,113.8,196.8,91.7z M220.7,268.9c-1.6,0.7-3.5,1.6-5.8,2.7c-0.2,3.6-0.5,7.6-0.8,12c-2.9,1.1-8.1,0.3-5.5,7.4
				c1.5,0.5,3.5,1.1,5.6,1.8c0,5.3,0,10.2,0,16c-2.2,0.4-4.4,0.7-7.7,1.3c0-6.2,0-11.6,0-17.3c-2.9-0.6-4.9-1.1-7.5-1.7
				c-0.1-1.6-0.3-3.4-0.4-5.6c2.4-0.7,4.6-1.3,7.2-2.1c0.2-3.6,0.4-7.2,0.7-11.5c1.7-0.8,3.5-1.7,5.8-2.8c0-6.8,0-13.8,0-20.1
				c-1.8-1.7-3.3-3-4.7-4.3c-0.2,0-0.4-0.1-0.6-0.1c0-0.1,0-0.1,0-0.2c-2.6,0.3-5.2,0.6-8.4,1c0-6,0-11.3,0-18
				c3.1,0.7,5.9,1.3,8.6,1.9c0,0,0,0,0-0.1c0-0.1,0-0.1,0.1-0.1c-0.3-1.9-0.6-3.7-1-5.6c-0.1,0-0.2,0-0.3,0.1c0-0.1,0-0.2,0-0.4
				c-2.3-0.6-4.5-1.3-7.5-2.1c-0.1-2.3-0.2-4.8-0.4-8.8c3.6,0.9,6.3,1.5,9,2.1v-0.1c-0.3-3-0.9-6-0.9-9c0.1-15.5,0.2-30.6,0.2-46.4
				c2.9,0,5.1,0,7.8,0c0,17.5,0,34.5,0,51.9c-2.1,1-4.5,2.1-6.8,3.2v0.1c0,0,0,0-0.1,0c-0.4,2.9-0.7,5.8-1.1,8.8
				c0.1,0,0.1,0,0.2,0.1c0,0.1,0,0.2,0,0.3c2.5-0.5,5-0.9,7.6-1.4c1.1,8-5.3,3.6-6.6,7c0,0.1,0,0.1,0,0.2h-0.1
				c-0.1,5.1-0.1,10.1-0.2,15.1c0.1,0,0.2,0,0.2,0c0.1,0.1,0.3,0.2,0.4,0.4c4.3,0.9,8.5,1.9,13,3
				C220.7,254.6,220.7,261.4,220.7,268.9z M223.6,91c2.4,0.2,4.5,0.4,7,0.7c0,22,0,43.6,0,65.7c-2.3,0.3-4.4,0.5-6.1,0.7
				C222.3,155.5,221.8,106.7,223.6,91z M226.4,292c0-3.1,0-4.9,0-7.4c2.3-0.1,4.6-0.3,7.2-0.4c0.3,1.7,0.7,2.8,0.6,3.9
				C233.6,294,229.7,290.6,226.4,292z M247.4,269.8c-2.7,0-5,0-8,0c0-7.4,0-14.4,0-21c-2.4-1.4-4.3-2.5-6.1-3.6c0,0,0,0,0,0s0,0,0,0
				c-0.2,0-0.4-0.1-0.6-0.1c0-0.1,0-0.1,0-0.2c-2.4,0-4.8,0-7.8,0c0-5.7,0-11.1,0-16.3c2.2-2.4,6.5,0.5,7.6-5.2
				c-2.4-0.9-4.8-1.7-7.7-2.7c-0.1-2.1-0.2-4.5-0.4-7.4c2.6-0.6,4.9-1,7.9-1.7c0.1-17.6,0.1-34.8,0.1-52.7c3,0,5.3,0,8,0
				c0,17.4,0,34.4,0,52c-1.9,0.8-4.1,1.6-6.8,2.7c-0.1,1.9-0.2,4-0.3,6.6c2.6,1,5,2,7.3,2.9c0.1,6.1-4.9,2.9-7,6.1
				c-0.3,4.8-0.6,10.2-0.9,15.7h0.1c0.2,0.1,0.3,0.2,0.5,0.3c0,0,0,0,0,0s0,0,0,0c4.6,0.7,9.1,1.3,14.1,2
				C247.4,254.7,247.4,262,247.4,269.8z M249.3,92.1c1.1-0.4,1.8-0.9,2.6-0.9c1.6,0,3.2,0.2,5.3,0.3c0,21.9,0,43.6,0,66.2
				c-1.8,0.2-3.1,0.4-4.5,0.4c-1,0-2-0.4-3.4-0.8C249.3,135.4,249.3,113.8,249.3,92.1z M258.8,244.9c-2.7-0.2-5.1-0.4-7.5-0.6
				c0-5.8,0-10.4,0-15.9c2.3-0.4,4.6-0.8,7.5-1.3C258.8,233.2,258.8,238.6,258.8,244.9z M251.4,221.7c0-3.4,0-5.5,0-8.2
				c2.3-0.7,4.5-1.4,7.3-2.3c0-17.3,0-34.3,0-52.4c3-0.2,5.5-0.3,8.4-0.4c0,18.1,0,35.4,0,53.1c-2.5,0.6-4.8,1.2-6.9,1.7
				c-0.6,7.3-0.6,7.3,7.5,10.3C260.4,229.7,257.3,218.6,251.4,221.7z M285.9,159c2.5,0,4.7,0,7.4,0c0,7.9,0,15.6,0,24.3
				c-2.8-0.2-4.9-0.3-7.4-0.5C285.9,174.9,285.9,167.3,285.9,159z M276.1,92.4c1-0.5,1.7-1.1,2.4-1.2c1.5-0.1,3.1,0.2,5,0.3
				c0,22.1,0,43.7,0,66.5c-2.9-0.2-4.9-0.3-7.4-0.5C276.1,135.5,276.1,114,276.1,92.4z M299.7,267.1c-2.5,0-4.6,0-7.5,0
				c0-6.5,0-12.8,0-19.1c-2.9-0.8-5.1-1.5-7.2-2.1c-0.2,0-0.5,0-0.7,0v-0.1c-2-0.4-4.1-0.8-6.6-1.3c0-5.2,0-10.5,0-16.9
				c2.8,0.4,5.2,0.8,7.6,1.2c0,0,0-0.1,0-0.1c0,0,0-0.1,0-0.1c0.1,0,0.1,0,0.2,0c-0.1-1.7-0.3-3.5-0.4-5.8c-2.3-0.5-4.6-1-7.3-1.6
				c-0.1-2.5-0.2-4.8-0.4-7.9c2.7-0.2,5-0.3,7.5-0.5c0.5,2.8,0.8,5.2,1.2,8c2.3,0.6,4.6,1.1,7.3,1.8c-0.1,1.3,0,3.2-0.4,3.4
				c-2.4,1-5,1.6-7.5,2.4c0,0.1,0,0.1,0,0.2c0,0,0,0.1,0,0.1c-0.1,0-0.1,0-0.2,0c0,0,0,0,0,0.1c0,0,0,0,0,0
				c-0.3,5.7-0.6,11.2-1,16.9h0.1c0.2,0.1,0.4,0.1,0.6,0.2c4.8,0.3,9.5,0.6,14.7,0.9C299.7,254,299.7,260.4,299.7,267.1z
				 M302.5,91.6c2.8,0,5.3,0,8.3,0c0,16.4,0,32.4,0,49.3c-2.6,0.2-5.1,0.4-8.3,0.6C302.5,124.6,302.5,108.4,302.5,91.6z
				 M319.5,246.3c-2.1,0-4.2,0-6.4,0c0-0.3,0-0.6,0-0.8c2.1,0,4.2,0,6.4,0C319.5,245.8,319.5,246.1,319.5,246.3z M319.4,226.6
				c-2.3,0.1-6.6,0-6.7-0.7c-1-6-6.1-3.1-8.8-5.8c-0.1-1.8-0.2-3.9-0.3-6.4c2.6-0.8,5.1-1.6,8.2-2.6c-0.1-13.3-0.1-26.5-0.1-40.6
				c3.5,0,5.9,0,8.8,0c0,13.5,0,26.7,0,40.6c-2,0.6-4.3,1.2-7.1,2.1c0,2.3,0,4.8,0,7.7c2.5,0.6,4.8,1.1,7.8,1.8
				C320.4,224.4,319.9,226.6,319.4,226.6z M329.5,91.6c2.5,0,4.8,0,7,0c0.6,7.4,0.6,7.4-7,7.4C329.5,96.3,329.5,94.2,329.5,91.6z
				 M336.9,157.4c-2.1,0.3-4.4,0.5-7.2,0.9c0-10.5,0-20.2,0-31c2.7,0.2,4.7,0.3,7.2,0.5C336.9,137.6,336.9,147,336.9,157.4z"/>
			<path d="M285.3,228.7C285.3,228.7,285.3,228.8,285.3,228.7C285.3,228.8,285.3,228.8,285.3,228.7
				C285.3,228.7,285.3,228.7,285.3,228.7z"/>
			<path d="M339.8,244.4c0.1,0.1,0.1,0.1,0.2,0.2c0.1,0,0.2,0,0.3,0.1c-0.1-0.1-0.1-0.1-0.2-0.2C340,244.5,339.9,244.5,339.8,244.4z
				"/>
			<path d="M339.1,244C339.1,244,339.1,244.1,339.1,244C339.1,244.1,339.2,244.1,339.1,244C339.2,244.1,339.2,244,339.1,244
				C339.2,244,339.1,244,339.1,244z"/>
			<polygon points="233.3,245.2 233.3,245.2 233.3,245.2 233.3,245.2 			"/>
			<path d="M133.1,113.6c0-5-3.2-9.2-7.7-10.8c0,7.2,0,14.5,0,21.7C129.9,122.8,133.1,118.6,133.1,113.6z"/>
			<path d="M207.4,229C207.4,229,207.5,229,207.4,229c0.1-0.1,0.1-0.1,0.1-0.2C207.4,228.9,207.4,228.9,207.4,229L207.4,229z"/>
			<path d="M206.5,223.2c0-0.1,0-0.2,0-0.3c-0.1,0-0.1,0-0.2-0.1c0,0.1,0,0.2,0,0.4C206.3,223.2,206.4,223.2,206.5,223.2z"/>
			<path d="M233.3,245.1c-0.2-0.1-0.3-0.2-0.5-0.3h-0.1c0,0.1,0,0.1,0,0.2C232.9,245.1,233.1,245.1,233.3,245.1z"/>
			<path d="M285.4,228.6c0.1,0,0.1,0,0.2,0c0-0.1,0-0.2,0-0.3c-0.1,0-0.1,0-0.2,0C285.4,228.4,285.4,228.5,285.4,228.6z"/>
			<path d="M207.8,244.5c-0.1-0.1-0.3-0.2-0.4-0.4c-0.1,0-0.2,0-0.2,0c0,0.1,0,0.1,0,0.2C207.4,244.4,207.6,244.4,207.8,244.5z"/>
			<path d="M285.1,245.8c-0.2-0.1-0.4-0.1-0.6-0.2h-0.1v0.1C284.6,245.7,284.9,245.7,285.1,245.8z"/>
			<path d="M80.6,391.9c5.4,0,10.7,0,16.2,0c0-18.2,0-35.8,0-53.9c-5.8,0-11.1,0-16.3,0C78.8,346.9,79,385,80.6,391.9z"/>
			<path d="M76,284.9c0,2.4,0,4.2,0,6.3c5.6,0,10.9,0,17.3,0c-0.2-2.6-0.3-4.5-0.4-6.3C86.8,284.9,81.4,284.9,76,284.9z"/>
			<path d="M102.1,291c6.1,0,11.6,0,17.1,0c0-2.4,0-4.1,0-6.3c-5.8,0-11.3,0-17.1,0C102.1,286.9,102.1,288.6,102.1,291z"/>
			<path d="M160.2,223.6c1.9,1.8,2.8,3.3,3.8,3.4c4.9,0.2,10,1.2,15.1-0.9C176.2,221,170.9,220.3,160.2,223.6z"/>
			<path d="M135,223.3c4.3,5.6,14.3,5.5,18.2-0.7C146.6,221.6,140.9,220.6,135,223.3z"/>
			<path d="M136.7,246.3c4.5,0,9,0,13.4,0c0.2-0.3,0.5-0.5,0.7-0.8c-4.7,0-9.4,0-14.1,0C136.8,245.7,136.7,246,136.7,246.3z"/>
			<path d="M163.4,245.3c-0.1,0.3-0.2,0.6-0.2,0.9c4.6,0,9.2,0,13.7,0c0-0.3,0-0.6,0-0.9C172.4,245.3,167.9,245.3,163.4,245.3z"/>
			<path d="M321.4,336.8c5.9,0,11.4,0,17.1,0c0-15.2,0-29.6,0-44.5c-5.9,0-11.4,0-17.1,0C321.4,307.4,321.4,321.8,321.4,336.8z"/>
			<path d="M347.3,336.8c6.5,0,11.8,0,17.2,0c0-15.4,0-30,0-45c-5.8,0-10.9,0-17.3,0C347.2,307.4,347.1,322.1,347.3,336.8z"/>
			<path d="M381,269.7c6,0,11.3,0,16.9,0c0-7.8,0-15,0-22.4c-5.8,0-11.1,0-16.9,0C381,254.7,381,261.7,381,269.7z"/>
			<path d="M407.3,269.7c5.9,0,11.2,0,16.7,0c0-7.8,0-15,0-22.4c-5.9,0-11.2,0-16.7,0C407.3,255,407.3,262.2,407.3,269.7z"/>
			<path d="M365.3,245c0-0.1,0-0.2,0-0.3c-0.1,0-0.2,0-0.3,0L365.3,245z"/>
			<path d="M365.3,244.7c6,0,12,0,17.8,0c0-6.3,0-11.5,0-16.7c-5.9,0-11.1,0-16.8,0C365.9,233.9,365.6,239.3,365.3,244.7z"/>
			<path d="M392.5,244.2c6,0,11.5,0,16.9,0c0-5.8,0-10.9,0-16.4c-5.8,0-11,0-16.9,0C392.5,234.1,392.5,239.1,392.5,244.2z"/>
			<path d="M366.5,221.1c5.9,0,11.2,0,16.8,0c0-2.9,0-5.3,0-8c-6.3,0-11.7,0-17.5,0C366,216.3,366.2,218.6,366.5,221.1z"/>
			<path d="M392.5,221.2c5.8,0,11.1,0,16.9,0c0-2.8,0-5.2,0-8.1c-6.1,0-11.4,0-17.2,0C392.3,216.1,392.4,218.4,392.5,221.2z"/>
		</g>
	</g>
</g>
<g>
	<path d="M87.7,79.1c0,114.9,0,229.8,0,344.8c107.3,0,214.7,0,322,0c0-114.8,0-229.7,0-344.8C302.4,79.1,195.3,79.1,87.7,79.1z
		 M121.6,125.1c-6.4,0-11.5-5.1-11.5-11.5s5.1-11.5,11.5-11.5s11.5,5.1,11.5,11.5S127.9,125.1,121.6,125.1z M340.4,400.6
		c-61,0-122.1,0-183.6,0c0-46,0-91.7,0-137.6c61.2,0,122.2,0,183.6,0C340.4,308.7,340.4,354.5,340.4,400.6z M340.5,239.6
		c-61.1,0-122.2,0-183.6,0c0-45.9,0-91.6,0-137.6c61.2,0,122.3,0,183.6,0C340.5,147.9,340.5,193.6,340.5,239.6z"/>
</g>
<circle class="st2" cx="121.6" cy="159.6" r="11.5"/>
<circle class="st2" cx="121.6" cy="205.6" r="11.5"/>
<circle class="st2" cx="121.6" cy="251.6" r="11.5"/>
<circle class="st2" cx="121.6" cy="297.6" r="11.5"/>
<circle class="st2" cx="121.6" cy="343.6" r="11.5"/>
<circle class="st2" cx="121.6" cy="389.6" r="11.5"/>
<circle class="st2" cx="377" cy="113.6" r="11.5"/>
<circle class="st2" cx="377" cy="159.6" r="11.5"/>
<circle class="st2" cx="377" cy="205.6" r="11.5"/>
<circle class="st2" cx="377" cy="251.6" r="11.5"/>
<circle class="st2" cx="377" cy="297.6" r="11.5"/>
<circle class="st2" cx="377" cy="343.6" r="11.5"/>
<circle class="st2" cx="377" cy="389.6" r="11.5"/>
</svg>
