<svg xmlns="http://www.w3.org/2000/svg" viewBox="0 0 54.37 65.77"><defs><style>.cls-1{fill:#00a19a;}.cls-2{fill:#d60b52;}.cls-3{fill:#fdfaef;}</style></defs><title>Zasób 1</title><g id="Warstwa_2" data-name="Warstwa 2"><g id="Warstwa_1-2" data-name="Warstwa 1"><ellipse class="cls-1" cx="35.57" cy="46.6" rx="14.3" ry="12.97" transform="translate(-21.62 33.73) rotate(-39.97)"/><polygon class="cls-2" points="31.61 14.17 39.18 22.4 23.77 35.61 9.6 31.4 7.05 28.37 8.98 24.32 31.61 14.17"/><path class="cls-3" d="M3.56,58.42,0,54.17,37.89,22.42l3.56,4.24-4.24,3.56.54.65a12.24,12.24,0,0,1,7,.8A15.32,15.32,0,0,1,50.61,36a16,16,0,0,1,3,5.51,15.59,15.59,0,0,1,.65,6.19,16.51,16.51,0,0,1-2,6.32,20.48,20.48,0,0,1-5,5.89l-1.09.92a21.19,21.19,0,0,1-6.7,3.94,16,16,0,0,1-6.56.91,14.9,14.9,0,0,1-6-1.78,17.17,17.17,0,0,1-5-4.1,15.93,15.93,0,0,1-1.94-2.92,14,14,0,0,1-1.24-3.36A14.54,14.54,0,0,1,18.44,50a10.5,10.5,0,0,1,.69-3.54l-.54-.65Zm21.73-2.83a12,12,0,0,0,3.69,3,11.23,11.23,0,0,0,4.33,1.24A11.43,11.43,0,0,0,38,59.21a14.9,14.9,0,0,0,4.6-2.7l1.09-.91a14.38,14.38,0,0,0,3.38-4,11.81,11.81,0,0,0,1.45-4.46A11.17,11.17,0,0,0,48,42.6a11.81,11.81,0,0,0-2.28-4.16,11.09,11.09,0,0,0-3.7-2.92,11.45,11.45,0,0,0-4.44-1.15,12.4,12.4,0,0,0-4.75.69,14.11,14.11,0,0,0-4.59,2.65l-.66.54a14.53,14.53,0,0,0-3.46,4.11,12.58,12.58,0,0,0-1.51,4.56A11.05,11.05,0,0,0,23,51.46,11.34,11.34,0,0,0,25.29,55.59Z"/><path class="cls-3" d="M25.32,0l7.85,9.37,14-7.45,3.56,4.25-14,7.44,8.38,10-3.92,3.29L32.08,16,10.49,27.54a1.51,1.51,0,0,0-.92,1,1.24,1.24,0,0,0,.28,1.11,2,2,0,0,0,1,.59L25.1,34.58l-4.71,3.66-11-3.13a8.41,8.41,0,0,1-4.16-2.64,6.42,6.42,0,0,1-1.59-4.22A5.47,5.47,0,0,1,6,24a6.58,6.58,0,0,1,.83-.61,8.47,8.47,0,0,1,1-.55L28.51,11.78,21.4,3.29Z"/></g></g></svg>